<?xml version="1.0" encoding="UTF-8"?>
<svg xmlns="http://www.w3.org/2000/svg" xmlns:xlink="http://www.w3.org/1999/xlink" width="97pt" height="5pt" viewBox="0 0 97 5" version="1.1">
<g id="surface1">
<path style=" stroke:none;fill-rule:nonzero;fill:rgb(0%,0%,0%);fill-opacity:1;" d="M 0.914062 1.316406 C 0.625 1.5625 0.289062 1.785156 0.179688 1.785156 C 0.0898438 1.785156 0 2.230469 0 2.789062 L 0 3.792969 L 7.644531 3.792969 C 11.835938 3.792969 16.382812 3.707031 17.71875 3.59375 C 19.078125 3.460938 21.574219 3.371094 23.292969 3.347656 C 30.9375 3.28125 58.953125 3.550781 70.210938 3.792969 C 79.660156 3.996094 83.828125 3.996094 87.929688 3.792969 C 95.730469 3.4375 95.839844 3.414062 95.839844 2.789062 C 95.839844 2.523438 95.707031 2.1875 95.574219 2.054688 C 95.171875 1.742188 78.253906 1.226562 70.320312 1.273438 C 66.777344 1.292969 55.476562 1.382812 45.246094 1.449219 C 33.078125 1.539062 25.320312 1.519531 22.847656 1.363281 C 20.773438 1.226562 15.089844 1.070312 10.253906 0.980469 C 1.492188 0.847656 1.449219 0.847656 0.914062 1.316406 Z M 0.914062 1.316406 "/>
</g>
</svg>
